<svg width="40" height="40" viewBox="0 0 40 40" fill="none" xmlns="http://www.w3.org/2000/svg">
<rect x="40" y="40" width="40" height="40" rx="20" transform="rotate(-180 40 40)" fill="#EAF3F9"/>
<path d="M17.545 18.3997V25.2367C17.545 25.4634 17.6351 25.6807 17.7954 25.841C17.9556 26.0013 18.173 26.0913 18.3997 26.0913C18.6263 26.0913 18.8437 26.0013 19.004 25.841C19.1643 25.6807 19.2543 25.4634 19.2543 25.2367V18.3997C19.2543 18.173 19.1643 17.9556 19.004 17.7954C18.8437 17.6351 18.6263 17.545 18.3997 17.545C18.173 17.545 17.9556 17.6351 17.7954 17.7954C17.6351 17.9556 17.545 18.173 17.545 18.3997Z" fill="#808191"/>
<path d="M21.8181 17.545C22.0448 17.545 22.2622 17.6351 22.4224 17.7954C22.5827 17.9556 22.6728 18.173 22.6728 18.3997V25.2367C22.6728 25.4634 22.5827 25.6807 22.4224 25.841C22.2622 26.0013 22.0448 26.0913 21.8181 26.0913C21.5915 26.0913 21.3741 26.0013 21.2138 25.841C21.0535 25.6807 20.9635 25.4634 20.9635 25.2367V18.3997C20.9635 18.173 21.0535 17.9556 21.2138 17.7954C21.3741 17.6351 21.5915 17.545 21.8181 17.545Z" fill="#808191"/>
<path d="M23.5274 13.2719H28.6552C28.8819 13.2719 29.0993 13.3619 29.2595 13.5222C29.4198 13.6825 29.5098 13.8999 29.5098 14.1265C29.5098 14.3532 29.4198 14.5706 29.2595 14.7308C29.0993 14.8911 28.8819 14.9811 28.6552 14.9811H27.71L26.4246 26.5631C26.3085 27.6084 25.811 28.5741 25.0273 29.2755C24.2437 29.9769 23.2288 30.3646 22.1771 30.3645H18.0407C16.989 30.3646 15.9742 29.9769 15.1905 29.2755C14.4068 28.5741 13.9093 27.6084 13.7932 26.5631L12.5061 14.9811H11.5626C11.336 14.9811 11.1186 14.8911 10.9583 14.7308C10.798 14.5706 10.708 14.3532 10.708 14.1265C10.708 13.8999 10.798 13.6825 10.9583 13.5222C11.1186 13.3619 11.336 13.2719 11.5626 13.2719H16.6904C16.6904 12.3652 17.0506 11.4957 17.6917 10.8546C18.3328 10.2135 19.2023 9.85337 20.1089 9.85337C21.0156 9.85337 21.8851 10.2135 22.5262 10.8546C23.1673 11.4957 23.5274 12.3652 23.5274 13.2719V13.2719ZM20.1089 11.5626C19.6556 11.5626 19.2208 11.7427 18.9003 12.0633C18.5798 12.3838 18.3997 12.8186 18.3997 13.2719H21.8182C21.8182 12.8186 21.6381 12.3838 21.3176 12.0633C20.997 11.7427 20.5623 11.5626 20.1089 11.5626V11.5626ZM14.2274 14.9811L15.4922 26.3751C15.562 27.0021 15.8606 27.5814 16.3308 28.0021C16.801 28.4228 17.4098 28.6553 18.0407 28.6552H22.1771C22.8078 28.6549 23.4161 28.4222 23.886 28.0015C24.3558 27.5809 24.6541 27.0018 24.7239 26.3751L25.9922 14.9811H14.2291H14.2274Z" fill="#808191"/>
</svg>
