<svg width="13" height="15" viewBox="0 0 13 15" fill="none" xmlns="http://www.w3.org/2000/svg">
<path d="M7.19307 14.6489L12.4784 9.27187C12.8008 8.94381 12.8008 8.41175 12.4784 8.08369C12.1558 7.75556 11.633 7.75556 11.3104 8.08369L7.43494 12.0264L7.43494 1.63256C7.43494 1.16859 7.06517 0.792404 6.60912 0.792404C6.15313 0.792404 5.78329 1.16859 5.78329 1.63256L5.78329 12.0264L1.90778 8.08382C1.58525 7.75569 1.0624 7.75569 0.739866 8.08382C0.57873 8.24782 0.497998 8.4629 0.497998 8.67792C0.497998 8.89293 0.57873 9.10794 0.739866 9.27201L6.02516 14.6489C6.34769 14.977 6.87054 14.977 7.19307 14.6489Z" fill="#798488"/>
</svg>
