<svg width="130" height="45" viewBox="0 0 130 45" fill="none" xmlns="http://www.w3.org/2000/svg">
<path d="M36 0H18L0 22.5H18L36 0Z" fill="#A2F3B2"/>
<path d="M36 22.5H18L0 45H18L36 22.5Z" fill="#23B2EF"/>
<path d="M49.68 31C48.768 31 47.984 30.672 47.328 30.016C46.672 29.36 46.344 28.576 46.344 27.664V17.056C46.344 16.144 46.672 15.36 47.328 14.704C47.984 14.048 48.768 13.72 49.68 13.72H63.576V16.912H50.352C49.904 16.912 49.648 16.944 49.584 17.008C49.536 17.056 49.512 17.304 49.512 17.752V26.968C49.512 27.416 49.536 27.672 49.584 27.736C49.648 27.784 49.904 27.808 50.352 27.808H63.576V31H49.68ZM69.7744 31C68.8624 31 68.0784 30.68 67.4224 30.04C66.7824 29.384 66.4624 28.6 66.4624 27.688V12.496H69.6304V27.016C69.6304 27.464 69.6544 27.72 69.7024 27.784C69.7664 27.832 70.0144 27.856 70.4464 27.856H72.5824V31H69.7744ZM75.2861 31V17.08H78.4301V31H75.2861ZM75.2861 15.688V12.52H78.4301V15.688H75.2861ZM92.061 36.52V31H84.357C83.445 31 82.661 30.68 82.005 30.04C81.365 29.384 81.045 28.6 81.045 27.688V20.392C81.045 19.48 81.365 18.704 82.005 18.064C82.661 17.408 83.445 17.08 84.357 17.08H95.205V36.52H92.061ZM85.053 27.856H91.221C91.669 27.856 91.917 27.832 91.965 27.784C92.029 27.72 92.061 27.464 92.061 27.016V21.064C92.061 20.616 92.029 20.368 91.965 20.32C91.917 20.256 91.669 20.224 91.221 20.224H85.053C84.605 20.224 84.349 20.256 84.285 20.32C84.237 20.368 84.213 20.616 84.213 21.064V27.016C84.213 27.464 84.237 27.72 84.285 27.784C84.349 27.832 84.605 27.856 85.053 27.856ZM101.121 31C100.209 31 99.4252 30.68 98.7692 30.04C98.1292 29.384 97.8092 28.6 97.8092 27.688V17.08H100.953V27.016C100.953 27.464 100.977 27.72 101.025 27.784C101.089 27.832 101.345 27.856 101.793 27.856H107.961C108.409 27.856 108.657 27.832 108.705 27.784C108.769 27.72 108.801 27.464 108.801 27.016V17.08H111.945V27.688C111.945 28.6 111.617 29.384 110.961 30.04C110.321 30.68 109.545 31 108.633 31H101.121ZM117.702 31C116.79 31 116.006 30.68 115.35 30.04C114.71 29.384 114.39 28.6 114.39 27.688V20.392C114.39 19.48 114.71 18.704 115.35 18.064C116.006 17.408 116.79 17.08 117.702 17.08H125.214C126.126 17.08 126.902 17.408 127.542 18.064C128.198 18.704 128.526 19.48 128.526 20.392V25.624H117.534V27.016C117.534 27.464 117.558 27.72 117.606 27.784C117.67 27.832 117.926 27.856 118.374 27.856H128.526V31H117.702ZM117.534 22.792H125.382V21.064C125.382 20.616 125.35 20.368 125.286 20.32C125.238 20.256 124.99 20.224 124.542 20.224H118.374C117.926 20.224 117.67 20.256 117.606 20.32C117.558 20.368 117.534 20.616 117.534 21.064V22.792Z" fill="black"/>
</svg>
