<svg width="197" height="40" viewBox="0 0 197 40" fill="none" xmlns="http://www.w3.org/2000/svg">
<path d="M32 0H16L0 20H16L32 0Z" fill="#FFCE75"/>
<path d="M32 20H16L0 40H16L32 20Z" fill="#23B2EF"/>
<path d="M41.218 28V12.88H55.141V15.673H44.011V19.033H52.957V21.826H44.011V28H41.218ZM56.6878 28V18.718C56.6878 17.92 56.9678 17.241 57.5278 16.681C58.1018 16.107 58.7878 15.82 59.5858 15.82H66.3478V18.571H60.1738C59.7818 18.571 59.5578 18.599 59.5018 18.655C59.4598 18.697 59.4388 18.914 59.4388 19.306V28H56.6878ZM71.2646 28C70.4666 28 69.7806 27.72 69.2066 27.16C68.6466 26.586 68.3666 25.9 68.3666 25.102V20.524H77.9846V19.306C77.9846 18.914 77.9566 18.697 77.9006 18.655C77.8586 18.599 77.6416 18.571 77.2496 18.571H68.3666V15.82H77.8376C78.6356 15.82 79.3146 16.107 79.8746 16.681C80.4486 17.241 80.7356 17.92 80.7356 18.718V28H71.2646ZM71.8526 25.249H77.9846V23.002H71.1176V24.514C71.1176 24.906 71.1386 25.13 71.1806 25.186C71.2366 25.228 71.4606 25.249 71.8526 25.249ZM82.8559 28V15.82H97.9549C98.7529 15.82 99.4319 16.107 99.9919 16.681C100.566 17.241 100.853 17.92 100.853 18.718V28H98.1229V19.306C98.1229 18.914 98.0949 18.697 98.0389 18.655C97.9829 18.599 97.7659 18.571 97.3879 18.571H93.9859C93.5939 18.571 93.3699 18.599 93.3139 18.655C93.2719 18.697 93.2509 18.914 93.2509 19.306V28H90.4789V19.306C90.4789 18.914 90.4509 18.697 90.3949 18.655C90.3529 18.599 90.1359 18.571 89.7439 18.571H86.3419C85.9499 18.571 85.7259 18.599 85.6699 18.655C85.6279 18.697 85.6069 18.914 85.6069 19.306V28H82.8559ZM106.045 28C105.247 28 104.561 27.72 103.987 27.16C103.427 26.586 103.147 25.9 103.147 25.102V18.718C103.147 17.92 103.427 17.241 103.987 16.681C104.561 16.107 105.247 15.82 106.045 15.82H112.618C113.416 15.82 114.095 16.107 114.655 16.681C115.229 17.241 115.516 17.92 115.516 18.718V23.296H105.898V24.514C105.898 24.906 105.919 25.13 105.961 25.186C106.017 25.228 106.241 25.249 106.633 25.249H115.516V28H106.045ZM105.898 20.818H112.765V19.306C112.765 18.914 112.737 18.697 112.681 18.655C112.639 18.599 112.422 18.571 112.03 18.571H106.633C106.241 18.571 106.017 18.599 105.961 18.655C105.919 18.697 105.898 18.914 105.898 19.306V20.818ZM121.759 28L116.971 15.82H119.89L122.851 23.002L125.959 15.82H128.815L132.133 23.044L134.884 15.82H137.803L133.225 28H131.083L127.408 19.873L123.901 28H121.759ZM141.85 28C141.052 28 140.366 27.72 139.792 27.16C139.232 26.586 138.952 25.9 138.952 25.102V18.718C138.952 17.92 139.232 17.241 139.792 16.681C140.366 16.107 141.052 15.82 141.85 15.82H148.423C149.221 15.82 149.9 16.107 150.46 16.681C151.034 17.241 151.321 17.92 151.321 18.718V25.102C151.321 25.9 151.034 26.586 150.46 27.16C149.9 27.72 149.221 28 148.423 28H141.85ZM142.438 25.249H147.835C148.227 25.249 148.444 25.228 148.486 25.186C148.542 25.13 148.57 24.906 148.57 24.514V19.306C148.57 18.914 148.542 18.697 148.486 18.655C148.444 18.599 148.227 18.571 147.835 18.571H142.438C142.046 18.571 141.822 18.599 141.766 18.655C141.724 18.697 141.703 18.914 141.703 19.306V24.514C141.703 24.906 141.724 25.13 141.766 25.186C141.822 25.228 142.046 25.249 142.438 25.249ZM153.462 28V18.718C153.462 17.92 153.742 17.241 154.302 16.681C154.876 16.107 155.562 15.82 156.36 15.82H163.122V18.571H156.948C156.556 18.571 156.332 18.599 156.276 18.655C156.234 18.697 156.213 18.914 156.213 19.306V28H153.462ZM164.895 28V11.83H167.646V20.524H169.809L174.156 15.82H177.096V16.576L172.245 21.91L177.075 27.244V28H174.156L169.809 23.296H167.646V28H164.895Z" fill="#22304A"/>
</svg>
