<svg width="64" height="64" viewBox="0 0 64 64" fill="none" xmlns="http://www.w3.org/2000/svg">
<path d="M22.5737 30.1147C25.5951 27.0934 30.8644 27.0934 33.8857 30.1147L35.771 32L39.5417 28.2294L37.6564 26.344C35.1417 23.8267 31.7924 22.4374 28.2297 22.4374C24.6671 22.4374 21.3177 23.8267 18.8031 26.344L13.1444 32C10.6492 34.5033 9.24805 37.8936 9.24805 41.428C9.24805 44.9625 10.6492 48.3528 13.1444 50.856C14.3814 52.0948 15.851 53.0769 17.4687 53.746C19.0864 54.4151 20.8204 54.7579 22.5711 54.7547C24.3221 54.7584 26.0567 54.4158 27.6749 53.7467C29.2932 53.0776 30.7632 52.0952 32.0004 50.856L33.8857 48.9707L30.1151 45.2L28.2297 47.0854C26.727 48.5814 24.6928 49.4213 22.5724 49.4213C20.4519 49.4213 18.4178 48.5814 16.9151 47.0854C15.4177 45.5833 14.5769 43.5489 14.5769 41.428C14.5769 39.3072 15.4177 37.2728 16.9151 35.7707L22.5737 30.1147Z" fill="#808191"/>
<path d="M32.0003 13.144L30.115 15.0294L33.8856 18.8L35.771 16.9147C37.2737 15.4187 39.3079 14.5788 41.4283 14.5788C43.5488 14.5788 45.5829 15.4187 47.0856 16.9147C48.583 18.4167 49.4238 20.4511 49.4238 22.572C49.4238 24.6929 48.583 26.7273 47.0856 28.2294L41.427 33.8854C38.4057 36.9067 33.1363 36.9067 30.115 33.8854L28.2297 32L24.459 35.7707L26.3443 37.656C28.859 40.1734 32.2083 41.5627 35.771 41.5627C39.3336 41.5627 42.683 40.1734 45.1976 37.656L50.8563 32C53.3515 29.4968 54.7527 26.1065 54.7527 22.572C54.7527 19.0376 53.3515 15.6473 50.8563 13.144C48.3538 10.6475 44.9632 9.24548 41.4283 9.24548C37.8934 9.24548 34.5029 10.6475 32.0003 13.144Z" fill="#808191"/>
</svg>
