<svg width="64" height="64" viewBox="0 0 64 64" fill="none" xmlns="http://www.w3.org/2000/svg">
<path d="M26 0C24.4087 0 22.8826 0.632141 21.7574 1.75736C20.6321 2.88258 20 4.4087 20 6V10C20 11.5913 20.6321 13.1174 21.7574 14.2426C22.8826 15.3679 24.4087 16 26 16H38C39.5913 16 41.1174 15.3679 42.2426 14.2426C43.3679 13.1174 44 11.5913 44 10V6C44 4.4087 43.3679 2.88258 42.2426 1.75736C41.1174 0.632141 39.5913 0 38 0L26 0ZM38 4C38.5304 4 39.0391 4.21071 39.4142 4.58579C39.7893 4.96086 40 5.46957 40 6V10C40 10.5304 39.7893 11.0391 39.4142 11.4142C39.0391 11.7893 38.5304 12 38 12H26C25.4696 12 24.9609 11.7893 24.5858 11.4142C24.2107 11.0391 24 10.5304 24 10V6C24 5.46957 24.2107 4.96086 24.5858 4.58579C24.9609 4.21071 25.4696 4 26 4H38Z" fill="#808191"/>
<path d="M16 6H12C9.87827 6 7.84344 6.84285 6.34315 8.34315C4.84285 9.84344 4 11.8783 4 14V56C4 58.1217 4.84285 60.1566 6.34315 61.6569C7.84344 63.1571 9.87827 64 12 64H52C54.1217 64 56.1566 63.1571 57.6569 61.6569C59.1571 60.1566 60 58.1217 60 56V14C60 11.8783 59.1571 9.84344 57.6569 8.34315C56.1566 6.84285 54.1217 6 52 6H48V10C48 11.3132 47.7413 12.6136 47.2388 13.8268C46.7362 15.0401 45.9997 16.1425 45.0711 17.0711C44.1425 17.9997 43.0401 18.7362 41.8268 19.2388C40.6136 19.7413 39.3132 20 38 20H26C23.3478 20 20.8043 18.9464 18.9289 17.0711C17.0536 15.1957 16 12.6522 16 10V6ZM40 32C40 30.9391 40.4214 29.9217 41.1716 29.1716C41.9217 28.4214 42.9391 28 44 28C45.0609 28 46.0783 28.4214 46.8284 29.1716C47.5786 29.9217 48 30.9391 48 32V52C48 53.0609 47.5786 54.0783 46.8284 54.8284C46.0783 55.5786 45.0609 56 44 56C42.9391 56 41.9217 55.5786 41.1716 54.8284C40.4214 54.0783 40 53.0609 40 52V32ZM16 48C16 46.9391 16.4214 45.9217 17.1716 45.1716C17.9217 44.4214 18.9391 44 20 44C21.0609 44 22.0783 44.4214 22.8284 45.1716C23.5786 45.9217 24 46.9391 24 48V52C24 53.0609 23.5786 54.0783 22.8284 54.8284C22.0783 55.5786 21.0609 56 20 56C18.9391 56 17.9217 55.5786 17.1716 54.8284C16.4214 54.0783 16 53.0609 16 52V48ZM32 36C33.0609 36 34.0783 36.4214 34.8284 37.1716C35.5786 37.9217 36 38.9391 36 40V52C36 53.0609 35.5786 54.0783 34.8284 54.8284C34.0783 55.5786 33.0609 56 32 56C30.9391 56 29.9217 55.5786 29.1716 54.8284C28.4214 54.0783 28 53.0609 28 52V40C28 38.9391 28.4214 37.9217 29.1716 37.1716C29.9217 36.4214 30.9391 36 32 36Z" fill="#808191"/>
</svg>
