<svg width="16" height="18" viewBox="0 0 16 18" fill="none" xmlns="http://www.w3.org/2000/svg">
<path d="M6.03613 7.71971V13.1893C6.03613 13.3707 6.10817 13.5446 6.23639 13.6728C6.3646 13.801 6.53851 13.873 6.71984 13.873C6.90117 13.873 7.07507 13.801 7.20329 13.6728C7.33151 13.5446 7.40354 13.3707 7.40354 13.1893V7.71971C7.40354 7.53838 7.33151 7.36448 7.20329 7.23626C7.07507 7.10804 6.90117 7.03601 6.71984 7.03601C6.53851 7.03601 6.3646 7.10804 6.23639 7.23626C6.10817 7.36448 6.03613 7.53838 6.03613 7.71971Z" fill="#798488"/>
<path d="M9.45421 7.03601C9.63554 7.03601 9.80944 7.10804 9.93766 7.23626C10.0659 7.36448 10.1379 7.53838 10.1379 7.71971V13.1893C10.1379 13.3707 10.0659 13.5446 9.93766 13.6728C9.80944 13.801 9.63554 13.873 9.45421 13.873C9.27288 13.873 9.09898 13.801 8.97076 13.6728C8.84254 13.5446 8.77051 13.3707 8.77051 13.1893V7.71971C8.77051 7.53838 8.84254 7.36448 8.97076 7.23626C9.09898 7.10804 9.27288 7.03601 9.45421 7.03601Z" fill="#798488"/>
<path d="M10.822 3.6175H14.9242C15.1055 3.6175 15.2794 3.68954 15.4076 3.81776C15.5358 3.94598 15.6079 4.11988 15.6079 4.30121C15.6079 4.48254 15.5358 4.65644 15.4076 4.78466C15.2794 4.91288 15.1055 4.98491 14.9242 4.98491H14.168L13.1397 14.2505C13.0468 15.0867 12.6488 15.8593 12.0219 16.4204C11.3949 16.9815 10.5831 17.2917 9.74171 17.2916H6.43258C5.59122 17.2917 4.77936 16.9815 4.15242 16.4204C3.52547 15.8593 3.12746 15.0867 3.03458 14.2505L2.00492 4.98491H1.25011C1.06878 4.98491 0.894878 4.91288 0.766658 4.78466C0.638439 4.65644 0.566406 4.48254 0.566406 4.30121C0.566406 4.11988 0.638439 3.94598 0.766658 3.81776C0.894878 3.68954 1.06878 3.6175 1.25011 3.6175H5.35233C5.35233 2.89219 5.64046 2.19658 6.15334 1.6837C6.66621 1.17082 7.36183 0.88269 8.08714 0.88269C8.81246 0.88269 9.50807 1.17082 10.0209 1.6837C10.5338 2.19658 10.822 2.89219 10.822 3.6175ZM8.08714 2.2501C7.72448 2.2501 7.37668 2.39416 7.12024 2.6506C6.8638 2.90704 6.71974 3.25485 6.71974 3.6175H9.45455C9.45455 3.25485 9.31048 2.90704 9.05405 2.6506C8.79761 2.39416 8.4498 2.2501 8.08714 2.2501ZM3.3819 4.98491L4.39378 14.1C4.44963 14.6017 4.68849 15.0651 5.06465 15.4017C5.44081 15.7382 5.92785 15.9242 6.43258 15.9242H9.74171C10.2462 15.9239 10.7329 15.7377 11.1088 15.4012C11.4846 15.0647 11.7233 14.6014 11.7791 14.1L12.7938 4.98491H3.38326H3.3819Z" fill="#798488"/>
</svg>
