<svg width="28" height="28" viewBox="0 0 28 28" fill="none" xmlns="http://www.w3.org/2000/svg">
<path d="M24.5 6.64878H2.625V5.75914L21.875 4.19339V5.75914H24.5V3.09024C24.5 1.13304 22.9408 -0.240552 21.0368 0.0352344L3.465 2.58671C1.55925 2.86427 0 4.69158 0 6.64878V24.4415C0 25.3852 0.368749 26.2904 1.02513 26.9577C1.6815 27.6251 2.57174 28 3.5 28H24.5C25.4283 28 26.3185 27.6251 26.9749 26.9577C27.6313 26.2904 28 25.3852 28 24.4415V10.2073C28 9.26353 27.6313 8.3584 26.9749 7.69105C26.3185 7.02369 25.4283 6.64878 24.5 6.64878ZM21.875 19.1143C21.5302 19.1142 21.1887 19.045 20.8702 18.9108C20.5516 18.7765 20.2622 18.5797 20.0185 18.3317C19.7747 18.0837 19.5814 17.7894 19.4495 17.4654C19.3177 17.1414 19.2499 16.7943 19.25 16.4437C19.2501 16.093 19.3181 15.7459 19.4502 15.422C19.5823 15.0982 19.7758 14.8039 20.0197 14.5561C20.2636 14.3083 20.5532 14.1117 20.8718 13.9776C21.1904 13.8436 21.5319 13.7746 21.8768 13.7747C22.5732 13.775 23.241 14.0565 23.7333 14.5573C24.2256 15.0582 24.502 15.7374 24.5017 16.4454C24.5015 17.1535 24.2246 17.8325 23.732 18.333C23.2394 18.8335 22.5714 19.1146 21.875 19.1143Z" fill="#3898FC"/>
</svg>
